<svg width="28" height="28" viewBox="0 0 28 28" fill="none" xmlns="http://www.w3.org/2000/svg">
<rect width="28" height="28" rx="14" fill="#F5F5F5"/>
<g clip-path="url(#clip0_3135_3688)">
<path fill-rule="evenodd" clip-rule="evenodd" d="M13.587 21.6558V10.9719L11.3683 10.0234L7.65625 11.6102V21.6558H13.587Z" fill="#909CD1"/>
<path fill-rule="evenodd" clip-rule="evenodd" d="M11.3672 21.6558H13.5859V10.9719L11.3672 10.0234V21.6558Z" fill="#7986BF"/>
<path fill-rule="evenodd" clip-rule="evenodd" d="M20.3404 21.6562H13.2109V7.86759L16.7757 6.34375L20.3404 7.86759V21.6562Z" fill="#AEAED6"/>
<path fill-rule="evenodd" clip-rule="evenodd" d="M16.7757 21.6562H13.2109V7.86759L16.7757 6.34375V21.6562Z" fill="#D1D1F0"/>
<path fill-rule="evenodd" clip-rule="evenodd" d="M19.2628 8.74433C19.2628 8.64077 19.3468 8.55683 19.4503 8.55683C19.5539 8.55683 19.6378 8.64077 19.6378 8.74433V19.9073C19.6378 20.0108 19.5539 20.0948 19.4503 20.0948C19.3468 20.0948 19.2628 20.0108 19.2628 19.9073V8.74433ZM17.4805 7.98242C17.4805 7.87886 17.5644 7.79492 17.668 7.79492C17.7715 7.79492 17.8555 7.87886 17.8555 7.98242V19.9073C17.8555 20.0108 17.7715 20.0948 17.668 20.0948C17.5644 20.0948 17.4805 20.0108 17.4805 19.9073V7.98242ZM18.3717 8.36336C18.3717 8.2598 18.4556 8.17586 18.5592 8.17586C18.6627 8.17586 18.7467 8.2598 18.7467 8.36336V19.9073C18.7467 20.0108 18.6627 20.0948 18.5592 20.0948C18.4556 20.0948 18.3717 20.0108 18.3717 19.9073V8.36336Z" fill="#F3F3FF"/>
<path fill-rule="evenodd" clip-rule="evenodd" d="M10.2106 21.6558H8.81641V18.2499L10.2106 18.1172V21.6558Z" fill="#F3F3FF"/>
<path fill-rule="evenodd" clip-rule="evenodd" d="M15.0672 16.0988V14.7284L15.8265 14.6111V16.026L15.0672 16.0988ZM15.0672 13.9394V12.57L15.8265 12.3826V13.7965L15.0672 13.9394ZM15.0672 11.781V10.4106L15.8265 10.1531V11.568L15.0672 11.781ZM15.0672 9.62267L15.067 8.33952L15.8264 8.01367V9.33964L15.0672 9.62267H15.0672ZM13.7109 16.2278V14.9389L14.3847 14.835V16.1633L13.7109 16.2278ZM13.7109 14.1956V12.9036L14.385 12.7375V14.069L13.7109 14.1956ZM13.7109 12.1625V10.8704L14.385 10.6421V11.9737L13.7109 12.1625V12.1625ZM13.7109 10.1268V8.92058L14.3852 8.63158L14.385 9.87686L13.7109 10.1268Z" fill="#AEAED6"/>
<path fill-rule="evenodd" clip-rule="evenodd" d="M15.2937 16.0774V14.6939L16.053 14.5766V16.0046L15.2937 16.0774ZM15.2937 13.8974V12.515L16.053 12.3276V13.7544L15.2937 13.8973V13.8974ZM15.2937 11.7185V10.335L16.053 10.0775V11.5055L15.2937 11.7185ZM15.2937 9.53953L15.2936 8.24381L16.053 7.91797V9.2565L15.2937 9.53953ZM13.9375 16.2064V14.9045L14.6113 14.8006V16.1419L13.9375 16.2064ZM13.9375 14.1537V12.8487L14.6115 12.6825V14.0271L13.9375 14.1537ZM13.9375 12.1V10.7949L14.6115 10.5666V11.9112L13.9375 12.1ZM13.9375 10.0441V8.82491L14.6117 8.53591L14.6115 9.79416L13.9375 10.0441V10.0441Z" fill="#F3F3FF"/>
<path fill-rule="evenodd" clip-rule="evenodd" d="M14.0156 21.6559V17.683L14.2969 17.6562V21.6559H14.0156Z" fill="#AEAED6"/>
<path fill-rule="evenodd" clip-rule="evenodd" d="M15.6911 21.6558H14.2969V17.6561L15.6911 17.5234V21.6558Z" fill="#F3F3FF"/>
<path fill-rule="evenodd" clip-rule="evenodd" d="M13.8724 17.8839C13.7697 17.8935 13.6785 17.8181 13.6688 17.7154C13.6591 17.6126 13.7345 17.5215 13.8373 17.5118L15.9427 17.3114C16.0454 17.3017 16.1366 17.3771 16.1462 17.4799C16.1559 17.5826 16.0805 17.6738 15.9778 17.6834L13.8724 17.8839Z" fill="#AEAED6"/>
<path fill-rule="evenodd" clip-rule="evenodd" d="M9.35544 16.4712V15.3547L9.98703 15.2243V16.3842L9.35544 16.4712ZM9.35544 14.7114V13.5945L9.98703 13.3949V14.5558L9.35544 14.7114ZM9.35525 12.9519V11.9064L9.98703 11.6387V12.7271L9.35525 12.952V12.9519ZM8.24609 16.624V15.5823L8.7945 15.4697V16.5489L8.24609 16.624ZM8.24609 14.9851V13.9438L8.7945 13.7714V14.8503L8.24609 14.9852V14.9851ZM8.24609 13.3449V12.3733L8.79484 12.1421L8.79469 13.1509L8.24609 13.3449Z" fill="#7986BF"/>
<path fill-rule="evenodd" clip-rule="evenodd" d="M9.55856 16.4417V15.3112L10.1902 15.1808V16.3547L9.55856 16.4417ZM9.55856 14.6598V13.5286L10.1902 13.329V14.5042L9.55856 14.6598ZM9.55838 12.8779V11.8185L10.1902 11.5508V12.653L9.55838 12.8779ZM8.44922 16.5944V15.5387L8.99763 15.4261V16.5193L8.44922 16.5944V16.5944ZM8.44922 14.9335V13.8779L8.99763 13.7055V14.7987L8.44922 14.9335V14.9335ZM8.44922 13.2713V12.2853L8.99797 12.0542L8.99781 13.0773L8.44925 13.2713L8.44922 13.2713Z" fill="#F3F3FF"/>
<path fill-rule="evenodd" clip-rule="evenodd" d="M8.81497 21.6559H8.58203V18.2722L8.81497 18.25V21.6559Z" fill="#7986BF"/>
<path d="M6.35938 20.875H21.6372V21.6566H6.35938V20.875Z" fill="#E6B17C"/>
<path d="M6.35938 21.2656H21.6372V21.6564H6.35938V21.2656Z" fill="#D19458"/>
<path fill-rule="evenodd" clip-rule="evenodd" d="M8.56381 18.461C8.46106 18.4707 8.3699 18.3953 8.36021 18.2926C8.35053 18.1898 8.42593 18.0987 8.52868 18.089L10.4603 17.9051C10.5631 17.8954 10.6542 17.9709 10.6639 18.0736C10.6736 18.1764 10.5982 18.2675 10.4954 18.2772L8.56381 18.461Z" fill="#3D4A75"/>
</g>
<defs>
<clipPath id="clip0_3135_3688">
<rect width="16" height="16" fill="white" transform="translate(6 6)"/>
</clipPath>
</defs>
</svg>
