<svg width="16" height="16" viewBox="0 0 16 16" fill="none" xmlns="http://www.w3.org/2000/svg">
<path fill-rule="evenodd" clip-rule="evenodd" d="M2.16797 6.76265C2.16797 3.49665 4.7713 0.833984 8.0013 0.833984C11.2313 0.833984 13.8346 3.49665 13.8346 6.76265C13.8346 8.33932 13.3853 10.0327 12.5906 11.4953C11.7973 12.956 10.6386 14.2253 9.18797 14.9033C8.81651 15.0771 8.41141 15.1672 8.0013 15.1672C7.59119 15.1672 7.18609 15.0771 6.81464 14.9033C5.36397 14.2253 4.2053 12.9567 3.41197 11.4953C2.6173 10.0327 2.16797 8.33932 2.16797 6.76265ZM8.0013 1.83398C5.33997 1.83398 3.16797 4.03198 3.16797 6.76265C3.16797 8.16065 3.56997 9.69065 4.29064 11.018C5.01197 12.3467 6.03197 13.434 7.2373 13.9973C7.47631 14.1093 7.73703 14.1673 8.00097 14.1673C8.26491 14.1673 8.52562 14.1093 8.76464 13.9973C9.97064 13.434 10.9906 12.3467 11.712 11.018C12.4326 9.69132 12.8346 8.16065 12.8346 6.76265C12.8346 4.03198 10.6626 1.83398 8.0013 1.83398ZM8.0013 5.16732C7.80432 5.16732 7.60926 5.20612 7.42728 5.2815C7.24529 5.35688 7.07993 5.46737 6.94064 5.60666C6.80135 5.74595 6.69086 5.9113 6.61548 6.09329C6.5401 6.27528 6.5013 6.47033 6.5013 6.66732C6.5013 6.8643 6.5401 7.05935 6.61548 7.24134C6.69086 7.42333 6.80135 7.58869 6.94064 7.72798C7.07993 7.86727 7.24529 7.97775 7.42728 8.05314C7.60926 8.12852 7.80432 8.16732 8.0013 8.16732C8.39913 8.16732 8.78066 8.00928 9.06196 7.72798C9.34327 7.44667 9.5013 7.06514 9.5013 6.66732C9.5013 6.26949 9.34327 5.88796 9.06196 5.60666C8.78066 5.32535 8.39913 5.16732 8.0013 5.16732ZM5.5013 6.66732C5.5013 6.00428 5.76469 5.36839 6.23353 4.89955C6.70238 4.43071 7.33826 4.16732 8.0013 4.16732C8.66434 4.16732 9.30023 4.43071 9.76907 4.89955C10.2379 5.36839 10.5013 6.00428 10.5013 6.66732C10.5013 7.33036 10.2379 7.96624 9.76907 8.43508C9.30023 8.90393 8.66434 9.16732 8.0013 9.16732C7.33826 9.16732 6.70238 8.90393 6.23353 8.43508C5.76469 7.96624 5.5013 7.33036 5.5013 6.66732Z" fill="#78828A"/>
</svg>
